# xmcd
#
# Track frame offsets: 
#        150
#        19774
#        30667
#        45566
#        63299
#        74984
#        87307
#        101571
#        120912
#        135542
#
# Disc length: 1944 seconds
#
# Revision: 0
# Processed by: cddbd v1.5.2PL0 Copyright (c) Steve Scherf et al.
# Submitted via: ExactAudioCopy v1.0b3
#
DISCID=8307960a
DTITLE=Julie Daraîche - Les oiseaux blancs
DYEAR=2002
DGENRE=Country
TTITLE0=Les oiseaux blancs
TTITLE1=Ça ne sert à rien
TTITLE2=Si tu ne crois pas aux anges
TTITLE3=Un message à mon coeur
TTITLE4=La vie a changer
TTITLE5=Fais-moi danser
TTITLE6=Qui restera le dernier
TTITLE7=Johnny
TTITLE8=Belle rivière
TTITLE9=Mon métier c'est la scène
EXTD=
EXTT0=
EXTT1=
EXTT2=
EXTT3=
EXTT4=
EXTT5=
EXTT6=
EXTT7=
EXTT8=
EXTT9=
PLAYORDER=
